<svg width="34" height="34" viewBox="0 0 34 34" fill="none" xmlns="http://www.w3.org/2000/svg">
<path d="M9 26.28V7.72C9 7.32236 9.32236 7 9.72 7H21.2018C21.3927 7 21.5759 7.07586 21.7109 7.21088L24.7891 10.2891C24.9241 10.4241 25 10.6073 25 10.7982V26.28C25 26.6776 24.6776 27 24.28 27H9.72C9.32236 27 9 26.6776 9 26.28Z" stroke="#3B82F6" stroke-width="1.8" stroke-linecap="round" stroke-linejoin="round"/>
<path d="M21 10.28V7.35355C21 7.15829 21.1583 7 21.3536 7C21.4473 7 21.5372 7.03725 21.6036 7.10355L24.8964 10.3964C24.9627 10.4628 25 10.5527 25 10.6464C25 10.8417 24.8417 11 24.6464 11H21.72C21.3224 11 21 10.6776 21 10.28Z" fill="#3B82F6" stroke="#3B82F6" stroke-width="1.8" stroke-linecap="round" stroke-linejoin="round"/>
<path d="M13 15L21 15" stroke="#3B82F6" stroke-width="1.8" stroke-linecap="round" stroke-linejoin="round"/>
<path d="M13 23L21 23" stroke="#3B82F6" stroke-width="1.8" stroke-linecap="round" stroke-linejoin="round"/>
<path d="M13 19L17 19" stroke="#3B82F6" stroke-width="1.8" stroke-linecap="round" stroke-linejoin="round"/>
</svg>
