<svg width="34" height="34" viewBox="0 0 34 34" fill="none" xmlns="http://www.w3.org/2000/svg">
<path d="M26 8.6V25.4C26 25.7314 25.7314 26 25.4 26H8.6C8.26863 26 8 25.7314 8 25.4V8.6C8 8.26863 8.26863 8 8.6 8H25.4C25.7314 8 26 8.26863 26 8.6Z" stroke="#3B82F6" stroke-width="1.8" stroke-linecap="round" stroke-linejoin="round"/>
<path d="M8 21L15 18L26 23" stroke="#3B82F6" stroke-width="1.8" stroke-linecap="round" stroke-linejoin="round"/>
<path d="M21 15C19.8954 15 19 14.1046 19 13C19 11.8954 19.8954 11 21 11C22.1046 11 23 11.8954 23 13C23 14.1046 22.1046 15 21 15Z" stroke="#3B82F6" stroke-width="1.8" stroke-linecap="round" stroke-linejoin="round"/>
</svg>
