<svg width="20" height="18" viewBox="0 0 20 18" fill="none" xmlns="http://www.w3.org/2000/svg">
<path d="M11.7815 1.51892L7.32006 5.99093C7.02876 6.28292 6.84478 6.69786 6.84478 7.12815V15.2116C6.84478 16.1029 7.56537 16.8252 8.4546 16.8252H15.7064C16.3503 16.8252 16.9329 16.441 17.1782 15.8417L18.7999 9.69456C19.4899 8.09631 18.3093 6.31365 16.5769 6.31365H13.0234L13.79 2.61002C13.8666 2.21046 13.744 1.79553 13.4527 1.50354C13.0081 1.04251 12.2415 1.04252 11.7815 1.51892ZM2.60981 16.8406C3.49904 16.8406 4.21962 16.1183 4.21962 15.227V8.75713C4.21962 7.8658 3.49904 7.14352 2.60981 7.14352C1.72058 7.14352 1 7.8658 1 8.75713V15.227C1 16.1029 1.73591 16.8406 2.60981 16.8406Z" stroke="#334155" stroke-width="1.5"/>
</svg>
