<svg width="18" height="16" viewBox="0 0 18 16" fill="none" xmlns="http://www.w3.org/2000/svg">
<path d="M9.78153 0.518916L5.32006 4.99093C5.02876 5.28292 4.84478 5.69786 4.84478 6.12815V14.2116C4.84478 15.1029 5.56537 15.8252 6.4546 15.8252H13.7064C14.3503 15.8252 14.9329 15.441 15.1782 14.8417L17.7999 8.69456C18.4899 7.09631 17.3093 5.31365 15.5769 5.31365H11.0234L11.79 1.61002C11.8666 1.21046 11.744 0.79553 11.4527 0.503543C11.0081 0.0425095 10.2415 0.0425152 9.78153 0.518916ZM1.60981 15.8406C2.49904 15.8406 3.21962 15.1183 3.21962 14.227V7.75713C3.21962 6.8658 2.49904 6.14352 1.60981 6.14352C0.720583 6.14352 0 6.8658 0 7.75713V14.227C0 15.1029 0.735914 15.8406 1.60981 15.8406Z" fill="#3B82F6"/>
</svg>
