<svg width="18" height="16" viewBox="0 0 18 16" fill="none" xmlns="http://www.w3.org/2000/svg">
<path d="M10.1355 0.87193L10.1356 0.871977L10.1412 0.866081C10.4089 0.588812 10.8491 0.597817 11.0928 0.850508L11.0927 0.850558L11.0987 0.856556C11.2703 1.02857 11.3443 1.2738 11.2995 1.51256L10.5338 5.21219L10.4093 5.81353H11.0234H15.5769C16.9512 5.81353 17.8878 7.22938 17.3409 8.49628L17.34 8.49829L14.7183 14.6454L14.7183 14.6454L14.7155 14.6522C14.5482 15.0608 14.1504 15.3251 13.7064 15.3251H6.4546C5.84262 15.3251 5.34478 14.8278 5.34478 14.2115V6.12803C5.34478 5.83694 5.47133 5.54713 5.67403 5.34395L10.1355 0.87193ZM2.71962 14.2268C2.71962 14.8431 2.22179 15.3405 1.60981 15.3405C1.01317 15.3405 0.5 14.8278 0.5 14.2268V7.75701C0.5 7.14071 0.997837 6.64339 1.60981 6.64339C2.22179 6.64339 2.71962 7.14071 2.71962 7.75701V14.2268Z" stroke="#475569"/>
</svg>
