<svg width="20" height="20" viewBox="0 0 20 20" fill="none" xmlns="http://www.w3.org/2000/svg">
<rect width="20" height="20" fill="white"/>
<path d="M11.7815 2.51879L7.32006 6.99081C7.02876 7.2828 6.84478 7.69773 6.84478 8.12803V16.2115C6.84478 17.1028 7.56537 17.8251 8.4546 17.8251H15.7064C16.3503 17.8251 16.9329 17.4409 17.1782 16.8415L18.7999 10.6944C19.4899 9.09619 18.3093 7.31353 16.5769 7.31353H13.0234L13.79 3.6099C13.8666 3.21034 13.744 2.79541 13.4527 2.50342C13.0081 2.04239 12.2415 2.04239 11.7815 2.51879ZM2.60981 17.8405C3.49904 17.8405 4.21962 17.1182 4.21962 16.2268V9.75701C4.21962 8.86568 3.49904 8.14339 2.60981 8.14339C1.72058 8.14339 1 8.86568 1 9.75701V16.2268C1 17.1028 1.73591 17.8405 2.60981 17.8405Z" fill="#3B82F6"/>
</svg>
