<svg width="234" height="130" viewBox="0 0 234 130" fill="none" xmlns="http://www.w3.org/2000/svg">
<path d="M202.818 0L233.854 27.8455H99.1913L72.8838 0H202.818Z" fill="#CBD5E1"/>
<path opacity="0.5" d="M202.818 0L233.854 27.8455H99.1913L72.8838 0H202.818Z" fill="black"/>
<path d="M202.884 0H72.8838V130H202.884V0Z" fill="#CBD5E1"/>
<path opacity="0.2" d="M202.884 0H72.8838V130H202.884V0Z" fill="black"/>
<path d="M161.146 0H31.1465V130H161.146V0Z" fill="#CBD5E1"/>
<path d="M31.1822 0L0.146484 27.8455H134.809L161.117 0H31.1822Z" fill="#CBD5E1"/>
<path opacity="0.3" d="M31.1822 0L0.146484 27.8455H134.809L161.117 0H31.1822Z" fill="white"/>
<path d="M90.6039 48.5986L91.5783 87.293L100.722 87.293L101.721 48.5986L90.6039 48.5986ZM96.1502 104.562C97.7991 104.562 99.2148 103.933 100.397 102.674C101.58 101.396 102.163 99.8673 102.146 98.0864C102.163 96.3235 101.58 94.8124 100.397 93.5532C99.2148 92.294 97.7991 91.6643 96.1502 91.6643C94.5679 91.6643 93.1772 92.294 91.978 93.5532C90.7788 94.8124 90.1709 96.3235 90.1542 98.0864C90.1709 99.2737 90.4624 100.362 91.0286 101.351C91.5783 102.323 92.3028 103.105 93.2022 103.699C94.1016 104.275 95.0842 104.562 96.1502 104.562Z" fill="white"/>
</svg>
