<svg width="20" height="20" viewBox="0 0 20 20" fill="none" xmlns="http://www.w3.org/2000/svg">
<path fill-rule="evenodd" clip-rule="evenodd" d="M14.8 2.75C13.8887 2.75 13.15 3.48872 13.15 4.39999C13.15 5.31125 13.8887 6.04998 14.8 6.04998C15.7112 6.04998 16.45 5.31125 16.45 4.39999C16.45 3.48872 15.7112 2.75 14.8 2.75ZM11.65 4.39999C11.65 2.6603 13.0603 1.25 14.8 1.25C16.5397 1.25 17.95 2.6603 17.95 4.39999C17.95 6.13968 16.5397 7.54998 14.8 7.54998C13.9192 7.54998 13.1229 7.18852 12.5513 6.60586L8.21475 9.08389C8.30272 9.37377 8.35003 9.68134 8.35003 9.99996C8.35003 10.3186 8.30272 10.6261 8.21475 10.916L12.5514 13.3941C13.123 12.8115 13.9193 12.4501 14.8 12.4501C16.5397 12.4501 17.95 13.8604 17.95 15.6001C17.95 17.3398 16.5397 18.75 14.8 18.75C13.0603 18.75 11.65 17.3398 11.65 15.6001C11.65 15.2814 11.6973 14.9738 11.7853 14.684L7.44867 12.2059C6.87703 12.7885 6.08074 13.15 5.20004 13.15C3.46035 13.15 2.05005 11.7397 2.05005 9.99996C2.05005 8.26027 3.46035 6.84998 5.20004 6.84998C6.08074 6.84998 6.87702 7.21141 7.44866 7.79403L11.7852 5.31598C11.6973 5.02612 11.65 4.71858 11.65 4.39999ZM3.55005 9.99996C3.55005 9.0887 4.28877 8.34998 5.20004 8.34998C6.1113 8.34998 6.85003 9.0887 6.85003 9.99996C6.85003 10.9112 6.1113 11.65 5.20004 11.65C4.28877 11.65 3.55005 10.9112 3.55005 9.99996ZM13.15 15.6001C13.15 14.6888 13.8887 13.9501 14.8 13.9501C15.7112 13.9501 16.45 14.6888 16.45 15.6001C16.45 16.5113 15.7112 17.25 14.8 17.25C13.8887 17.25 13.15 16.5113 13.15 15.6001Z" fill="#334155"/>
</svg>
